%
M48
M72
T01C0.03200
T02C0.03600
T03C0.04000
T04C0.04331
T05C0.05200
T06C0.15600
%
T01
X110620Y15200
X134620Y15200
X134620Y27200
X134620Y40200
X146620Y49200
X159620Y49200
X174620Y40200
X184620Y40200
X184620Y50200
X184620Y60200
X170620Y63200
X184620Y70200
X170620Y83200
X159620Y89200
X146620Y89200
X133620Y82200
X123620Y82200
X110620Y69200
X110620Y55200
X174620Y27200
X174620Y15200
X214620Y40200
X235620Y41200
X251620Y41200
X266620Y45200
X266620Y52200
X266620Y72200
X273620Y81200
X253620Y81200
X241620Y81200
X221620Y81200
X210620Y84200
X190620Y84200
X214620Y70200
X214620Y60200
X214620Y50200
X266620Y25200
X251620Y21200
X235620Y21200
X237620Y94200
X257620Y94200
X203620Y102200
X193620Y102200
X159620Y98200
X159620Y109200
X119620Y109200
X110620Y109200
X93620Y104200
X119620Y98200
X53620Y104200
X243620Y153200
X255620Y141200
X275620Y141200
X296620Y142200
X296620Y152200
X283620Y153200
T02
X210620Y19200
X200620Y19200
X190620Y19200
X190620Y9200
X200620Y9200
X210620Y9200
T03
X280014Y25436
X280014Y35279
X280014Y45121
X280014Y54964
X280014Y90436
X280014Y100279
X280014Y110121
X280014Y119964
T04
X246864Y132200
X63620Y82200
X33620Y82200
X42376Y132200
T05
X33620Y8200
X33620Y111200
T06
X34620Y149200
X320620Y148200
X268620Y11200
X50620Y11200
M30
