G75*
%MOIN*%
%OFA0B0*%
%FSLAX25Y25*%
%IPPOS*%
%LPD*%
%AMOC8*
5,1,8,0,0,1.08239X$1,22.5*
%
%ADD10OC8,0.13300*%
%ADD11OC8,0.06000*%
%ADD12C,0.07493*%
%ADD13C,0.06000*%
%ADD14R,0.03517X0.04737*%
%ADD15R,0.06800X0.03200*%
%ADD16C,0.06800*%
%ADD17R,0.06312X0.04737*%
%ADD18OC8,0.06400*%
%ADD19C,0.20400*%
D10*
X0033620Y0008200D03*
X0033620Y0111200D03*
D11*
X0110620Y0109200D03*
X0119620Y0109200D03*
X0119620Y0098200D03*
X0146620Y0089200D03*
X0159620Y0089200D03*
X0170620Y0083200D03*
X0190620Y0084200D03*
X0210620Y0084200D03*
X0221620Y0081200D03*
X0241620Y0081200D03*
X0253620Y0081200D03*
X0266620Y0072200D03*
X0273620Y0081200D03*
X0257620Y0094200D03*
X0237620Y0094200D03*
X0203620Y0102200D03*
X0193620Y0102200D03*
X0159620Y0098200D03*
X0159620Y0109200D03*
X0110620Y0069200D03*
X0110620Y0055200D03*
X0134620Y0040200D03*
X0146620Y0049200D03*
X0159620Y0049200D03*
X0174620Y0040200D03*
X0174620Y0027200D03*
X0174620Y0015200D03*
X0134620Y0015200D03*
X0134620Y0027200D03*
X0110620Y0015200D03*
X0170620Y0063200D03*
X0235620Y0041200D03*
X0251620Y0041200D03*
X0266620Y0045200D03*
X0266620Y0052200D03*
X0266620Y0025200D03*
X0251620Y0021200D03*
X0235620Y0021200D03*
X0255620Y0141200D03*
X0275620Y0141200D03*
X0296620Y0142200D03*
X0296620Y0152200D03*
X0283620Y0153200D03*
X0243620Y0153200D03*
D12*
X0246864Y0132200D03*
X0063620Y0082200D03*
X0033620Y0082200D03*
X0042376Y0132200D03*
D13*
X0053620Y0106800D02*
X0053620Y0101600D01*
X0093620Y0101600D02*
X0093620Y0106800D01*
X0123620Y0084800D02*
X0123620Y0079600D01*
X0133620Y0079600D02*
X0133620Y0084800D01*
X0182020Y0070200D02*
X0187220Y0070200D01*
X0187220Y0060200D02*
X0182020Y0060200D01*
X0182020Y0050200D02*
X0187220Y0050200D01*
X0187220Y0040200D02*
X0182020Y0040200D01*
X0212020Y0040200D02*
X0217220Y0040200D01*
X0217220Y0050200D02*
X0212020Y0050200D01*
X0212020Y0060200D02*
X0217220Y0060200D01*
X0217220Y0070200D02*
X0212020Y0070200D01*
D14*
X0250880Y0105082D03*
X0254620Y0105082D03*
X0258360Y0105082D03*
X0258360Y0115318D03*
X0254620Y0115318D03*
X0250880Y0115318D03*
D15*
X0253420Y0063700D03*
X0253420Y0058700D03*
X0253420Y0053700D03*
X0253420Y0048700D03*
X0231820Y0048700D03*
X0231820Y0053700D03*
X0231820Y0058700D03*
X0231820Y0063700D03*
D16*
X0277014Y0054964D02*
X0283014Y0054964D01*
X0283014Y0045121D02*
X0277014Y0045121D01*
X0277014Y0035279D02*
X0283014Y0035279D01*
X0283014Y0025436D02*
X0277014Y0025436D01*
X0277014Y0090436D02*
X0283014Y0090436D01*
X0283014Y0100279D02*
X0277014Y0100279D01*
X0277014Y0110121D02*
X0283014Y0110121D01*
X0283014Y0119964D02*
X0277014Y0119964D01*
D17*
X0091951Y0085940D03*
X0083289Y0082200D03*
X0091951Y0078460D03*
D18*
X0190620Y0019200D03*
X0200620Y0019200D03*
X0210620Y0019200D03*
X0210620Y0009200D03*
X0200620Y0009200D03*
X0190620Y0009200D03*
D19*
X0268620Y0011200D03*
X0050620Y0011200D03*
X0320620Y0148200D03*
X0034620Y0149200D03*
M02*
